
		<svg xmlns="http://www.w3.org/2000/svg" xmlns:xlink="http://www.w3.org/1999/xlink" version="1.1" width="3075.757575757576" height="772.7272727272727">
			
			<g transform="scale(3.787878787878788) translate(10, 10)">
				<defs id="SvgjsDefs1395"/><g id="SvgjsG1396" featureKey="root" fill="#000"/><g id="SvgjsG1397" featureKey="container1" fill="#000" transform="matrix(1.15,0,0,1.15,0,0)"><path xmlns="http://www.w3.org/2000/svg" fill-rule="nonzero" d="M0,0 H689 V160 H0,0zM6,6 V154 H683 V6,6z"/></g><g id="SvgjsG1398" featureKey="symbol1" fill="#000" transform="matrix(1.8449560027669192,0,0,1.8449560027669192,67.86805907452987,27.92440130936007)"><g xmlns="http://www.w3.org/2000/svg"><path fill="#464646" d="M26.876,17.546c-1.808,0.378-3.149,1.048-4.021,2.015c-0.872,0.96-0.939,2.474-0.194,4.535   c1.151,2.996,2.054,6.393,2.7,10.167c0.657,3.777,0.973,7.385,0.973,10.818h1.281c0.832-3.674,1.306-7.941,1.398-12.773   C29.124,27.473,28.404,22.552,26.876,17.546L26.876,17.546z M21.184,13.834c0.211,0,0.597-0.186,1.178-0.57   c0.57-0.378,1.345-0.355,2.31,0.058c-0.115-1.354-0.716-2.144-1.796-2.38C21.78,10.717,21.22,11.676,21.184,13.834L21.184,13.834z    M12.852,17.637c-0.338-0.362-0.858-0.551-1.574-0.582c-0.707-0.029-1.239,0.055-1.596,0.258c-0.171,0.294-0.33,0.691-0.482,1.213   c-0.157,0.52-0.173,0.926-0.059,1.228c0.355-0.56,0.859-0.845,1.521-0.831c0.646,0.008,1.157,0.039,1.543,0.1   c0.106-0.207,0.204-0.467,0.283-0.768C12.564,17.955,12.679,17.744,12.852,17.637L12.852,17.637z M12.429,12.246   c1.739-4.992,3.991-7.541,6.759-7.659c2.765-0.124,5.398,0.921,7.892,3.126c0.068-0.223,0.109-0.902,0.096-2.016   C27.169,4.587,27.441,3.552,28,2.588c0.552-0.971,1.557-1.609,2.999-1.918c1.452-0.311,3.667,0.211,6.646,1.578   c-0.457,0.162-1.006,0.094-1.654-0.232c-0.647-0.32-1.346-0.42-2.078-0.293c-0.746,0.12-1.503,0.68-2.285,1.686   c-0.781,0.994-1.527,2.9-2.225,5.699c0.514-1.271,1.75-2.807,3.723-4.627c1.977-1.807,3.725-1.922,5.262-0.338   c0.563,0.628,0.911,1.508,1.045,2.648c0.137,1.144,0.098,1.947-0.113,2.398c-0.475-2.725-1.754-3.846-3.854-3.371   c-2.094,0.475-3.584,2.341-4.473,5.605c1.206,0,2.656-0.578,4.351-1.738c1.681-1.162,4.034-0.578,7.039,1.738   c-1.205-0.057-1.993,0-2.356,0.176c-0.36,0.164-0.661,0.25-0.901,0.25c1.625,0,2.835,1.009,3.635,3.029   c0.804,2.02,1.214,3.615,1.214,4.768c-1.482-3.425-3.6-5.357-6.369-5.796c-2.764-0.444-4.518,0.044-5.248,1.452   c1.789,0.593,2.629,1.5,2.531,2.73c-0.105,1.229-0.838,2.785-2.191,4.67c-0.293-1.626-0.512-2.816-0.689-3.589   c-0.162-0.763-1.244-1.365-3.229-1.802c0.834,4.086,1.392,8.572,1.691,13.458c0.293,4.871,0.037,9.478-0.754,13.781   c-0.203,0.559-0.311,1.236-0.311,2.01c0.851,0.853,1.953,1.463,3.328,1.836c1.371,0.375,1.951,0.574,1.74,0.574   c-1.248,0.243-2.373,0.211-3.365-0.089c-1.228-0.317-2.535-0.704-3.897-1.159c-1.371-0.453-2.508-0.211-3.388,0.734   c-0.173,0.26-0.85,0.507-2.039,0.707c-1.189,0.215-2.125,0.291-2.803,0.23c1.092-0.734,1.868-1.121,2.32-1.16   c0.453-0.039,0.978-0.349,1.557-0.936c1.091-1.271,1.701-3.04,1.83-5.313c0.121-2.284-0.021-4.588-0.438-6.914   c-0.415-2.33-0.977-4.452-1.672-6.34c-0.698-1.885-1.307-3.084-1.82-3.597c-0.774-0.737-1.545-0.918-2.321-0.548   c-0.774,0.367-1.479,0.896-2.106,1.582c-0.641,0.688-1.142,1.338-1.528,1.945c-0.388,0.598-0.578,0.771-0.578,0.502   c0.082-0.898,0.294-2.088,0.625-3.547c0.34-1.473,1.528-2.363,3.588-2.682c-0.493-0.677-1.336-1.129-2.525-1.362   c-1.188-0.225-1.854-0.337-2.011-0.337c-0.376,0.789-0.694,1.642-0.978,2.549c-0.272,0.905-0.406,1.849-0.406,2.838   c-0.589-0.834-0.859-1.752-0.813-2.769c0.052-1.007,0.079-1.913,0.079-2.708c-0.968,0-2.07,0.707-3.309,2.1   c-1.237,1.4-2.033,2.498-2.389,3.289c-0.173-2.215,0.076-3.578,0.736-4.093c0.658-0.523,1.147-1.094,1.469-1.722   c-0.524-0.563-0.685-1.363-0.465-2.391c0.212-1.031,0.594-1.776,1.121-2.254c0.941-0.627,1.881-0.789,2.809-0.492   c0.916,0.293,1.67,0.6,2.264,0.924c0.296-0.574,0.8-1.086,1.486-1.55c0.689-0.466,1.586-0.513,2.709-0.155   c0-2.156,0.436-3.512,1.315-4.083c0.882-0.56,1.537-0.956,1.963-1.189c-3.173-1.982-5.214-2.177-6.134-0.57   C14.439,10.035,13.462,11.299,12.429,12.246L12.429,12.246z M16.306,17.124c0.331,0.114,0.791,0.356,1.403,0.731   c0.621,0.381,1.141,0.804,1.577,1.277c-0.119-0.263-0.32-0.833-0.609-1.684c-0.292-0.859-0.511-1.43-0.669-1.719   c-0.22,0-0.542,0.146-0.935,0.423C16.675,16.447,16.42,16.762,16.306,17.124L16.306,17.124z M21.386,16.475   c-0.117,0.221-0.156,0.951-0.127,2.162c0.017,1.221,0.175,1.897,0.437,2.057c0.113-0.836,0.348-1.975,0.693-3.419   c0.347-1.437,1.038-2.165,2.053-2.165c-0.96,0.117-1.595,0.252-1.896,0.424C22.246,15.701,21.859,16.02,21.386,16.475   L21.386,16.475z"/></g></g><g id="SvgjsG1399" featureKey="text1" fill="#000" transform="matrix(3.2164784338734105,0,0,3.2164784338734105,170.07011478015966,7.840999400361127)"><path d="M8.58 18.1 c1.4 0.1 2.82 0.08 4.24 -0.02 l0 0.82 l-0.62 0 c-0.4 0 -0.64 0.24 -0.64 0.64 l0 4.36 c0 0.26 -0.46 0.34 -0.52 0.1 l-0.48 -1.56 c-0.96 0.92 -2.14 1.76 -4.06 1.76 c-3.46 0 -5.9 -2.58 -5.9 -6.64 c0 -3.34 2.42 -6.3 5.62 -6.3 c1.62 0 2.9 0.72 3.68 1.64 c0.42 0 0.44 -0.44 0.5 -0.96 c0.02 -0.22 0.18 -0.4 0.4 -0.36 l0.32 0.1 l0.28 3.8 l-0.36 0.16 c-0.22 0.1 -0.38 0 -0.46 -0.22 c-0.06 -0.18 -0.16 -0.42 -0.28 -0.72 c-0.86 -1.88 -2.12 -2.78 -3.82 -2.78 c-2.22 0 -4.26 1.64 -4.26 5.06 c0 5.02 2.56 6.52 4.68 6.52 c1.84 0 3.22 -1.3 3.22 -2.1 l0 -1.86 c0 -0.4 -0.24 -0.64 -0.64 -0.64 l-0.9 0 l0 -0.8 z M23.4235 22.54 c0 0.72 0.34 0.84 1.12 0.72 l0 0.46 l-0.84 0.38 c-0.76 0.32 -1.42 -0.4 -1.6 -2.28 l0 -0.04 c-0.26 0.76 -1.22 2.34 -3.08 2.34 c-1.88 0 -3.06 -1.14 -3.06 -3.4 l0 -4.56 c0 -0.46 -0.16 -0.64 -0.56 -0.64 l-0.3 0 l0 -0.44 l1.74 -0.32 c0.28 0 0.44 0.08 0.44 0.38 l0 5.84 c0 1.7 0.74 2.28 2.16 2.28 s2.24 -1.08 2.66 -2.52 l0 -4.58 c0 -0.46 -0.14 -0.64 -0.54 -0.64 l-0.3 0 l0 -0.44 l1.72 -0.3 c0.32 -0.08 0.44 0.06 0.44 0.36 l0 7.4 z M29.147 23.1 c0 0.46 0.3 0.56 0.64 0.56 l0 0.34 l-2.68 0 l0 -0.34 c0.38 0 0.72 -0.1 0.72 -0.56 l0 -10.58 c0 -0.46 -0.14 -0.66 -0.54 -0.66 l-0.56 0 l0 -0.6 l1.94 -0.4 c0.32 -0.08 0.48 0.08 0.48 0.38 l0 11.86 z M39.6105 12.04 c0.22 0.22 0.46 0.66 0.12 0.98 c-0.28 0.3 -0.76 0.3 -0.94 -0.04 c-0.32 -0.66 -0.72 -1.62 -1.82 -1.62 c-1.3 0 -1.84 0.94 -1.84 2.14 l0 1.36 l3.12 0 c-0.2 0.62 -0.24 0.7 -0.62 0.7 l-2.5 0 l0 7.54 c0 0.46 0.16 0.56 1.04 0.56 l0 0.34 l-3.34 0 l0 -0.34 c0.76 0 0.92 -0.1 0.92 -0.56 l0 -7.54 l-1.32 0 c-0.12 0 -0.2 -0.08 -0.2 -0.2 l0 -0.5 l1.52 0 l0 -1 c0 -1.88 0.96 -3.2 2.8 -3.2 c1.9 0 2.62 0.82 3.06 1.38 z M48.614000000000004 21.4 c0 1.68 -1.58 2.72 -3.8 2.72 c-1.98 0 -3.32 -1.02 -3.46 -1.44 c-0.4 -1.22 -0.18 -1.56 0.12 -1.64 c0.94 -0.16 0.9 -0.04 0.92 0.32 c0.18 1.38 0.98 2.18 2.42 2.18 c1.62 0 2.36 -0.72 2.36 -1.8 c0 -1.12 -1.44 -1.48 -2.66 -1.84 c-1.28 -0.38 -3 -1.36 -3 -2.74 c0 -1.26 0.94 -2.36 3.34 -2.36 c1.94 0 3.2 1.12 3.24 1.52 c0.12 1.38 -0.2 1.68 -0.38 1.68 c-0.8 0.06 -1.06 -0.2 -1.02 -0.62 c0.14 -1.14 -0.32 -2.02 -1.84 -2.02 c-1.46 0 -2.08 0.6 -2.08 1.48 c0 1.18 1.46 1.7 2.46 2 c1.4 0.42 3.38 0.88 3.38 2.56 z M59.2775 22.46 c0 0.66 0.2 1.1 1.22 0.86 l-0.26 0.48 c-0.44 0.16 -0.54 0.2 -0.92 0.2 c-0.88 0 -1.44 -0.66 -1.44 -1.44 l0 -4.6 c0 -1.38 -0.44 -2.3 -1.7 -2.3 c-1.42 0 -2.44 1.2 -2.82 1.64 l0 5.78 c0 0.46 0.32 0.56 1 0.56 l0 0.36 l-3.32 0 l0 -0.36 c0.64 0 0.94 -0.1 0.94 -0.56 l0 -10.42 c0 -0.66 -0.42 -0.88 -1.18 -0.78 l0 -0.62 l1.84 -0.4 c0.74 -0.16 0.56 0.6 0.62 1.48 l0 3.98 l-0.06 0.68 c0.36 -0.62 1.38 -2.18 3.42 -2.18 c1.88 0 2.64 0.76 2.66 3.46 l0 4.18 z M66.761 14.8 c2.36 0 4.16 1.92 4.16 4.58 c0 2.76 -1.8 4.74 -4.06 4.74 c-2.34 0 -4.18 -1.98 -4.18 -4.58 c0 -2.82 1.84 -4.74 4.08 -4.74 z M69.601 19.740000000000002 c0 -2.28 -1.34 -4.28 -3.06 -4.28 c-1.44 0 -2.5 0.96 -2.5 3.7 c0 2.32 1.32 4.18 3.04 4.18 c1.46 0 2.52 -0.94 2.52 -3.6 z M79.08449999999999 16.48 c-0.42 0.52 -0.7 -0.54 -1.4 -0.54 c-1.38 0 -1.86 1.84 -2 2.44 l0 4.7 c0 0.46 0.34 0.56 1.08 0.56 l0 0.36 l-3.38 0 l0 -0.36 c0.68 0 1.02 -0.1 1.02 -0.56 l0 -6.4 c0 -0.66 -0.12 -0.86 -1.2 -0.8 l0 -0.7 l1.9 -0.3 c0.72 -0.1 0.6 0.64 0.5 1.54 l-0.18 1.68 c0.32 -2.24 1.42 -3.22 3.14 -3.22 c0.72 0 1.48 0.58 0.98 1.12 z M89.628 18.42 c0 0.76 -0.38 0.96 -1.12 0.96 l-5.2 0 c0 2.48 1.58 4.04 3.14 4.04 c1.5 0 2.16 -0.96 2.64 -1.62 l0.42 0.64 c-0.5 0.66 -1.22 1.68 -3.48 1.68 c-2.4 0 -4.22 -1.98 -4.22 -4.74 c0 -2.96 1.76 -4.58 4.06 -4.58 c1.96 0 3.76 1.34 3.76 3.62 z M88.16799999999999 18.72 c0.04 -1.86 -0.82 -3.24 -2.3 -3.24 c-1.6 0 -2.56 1.38 -2.56 3.24 l4.86 0 z  M107.275 13.88 l-0.44 0 l-0.3 -0.66 c-0.24 -0.58 -0.74 -0.92 -1.6 -0.92 l-4.82 0 l0 5.02 l3.76 0 c0.66 0 0.76 -0.54 1.02 -1.18 l0.3 0 l0 3.06 l-0.3 0 c-0.26 -0.62 -0.36 -1.2 -1.02 -1.2 l-3.76 0 l0 4.72 c0 0.78 0.32 0.76 0.98 1.02 l0 0.26 l-3.5 0 l0 -0.26 c0.68 -0.26 0.98 -0.24 0.98 -1.02 l0 -9.76 c0 -0.8 -0.3 -0.76 -0.98 -1.02 l0 -0.36 l8.82 0 c0.02 0 0.22 0.1 0.26 0.02 z M117.8785 22.54 c0 0.72 0.34 0.84 1.12 0.72 l0 0.46 l-0.84 0.38 c-0.76 0.32 -1.42 -0.4 -1.6 -2.28 l0 -0.04 c-0.26 0.76 -1.22 2.34 -3.08 2.34 c-1.88 0 -3.06 -1.14 -3.06 -3.4 l0 -4.56 c0 -0.46 -0.16 -0.64 -0.56 -0.64 l-0.3 0 l0 -0.44 l1.74 -0.32 c0.28 0 0.44 0.08 0.44 0.38 l0 5.84 c0 1.7 0.74 2.28 2.16 2.28 s2.24 -1.08 2.66 -2.52 l0 -4.58 c0 -0.46 -0.14 -0.64 -0.54 -0.64 l-0.3 0 l0 -0.44 l1.72 -0.3 c0.32 -0.08 0.44 0.06 0.44 0.36 l0 7.4 z M129.662 22.46 c0 0.66 0.2 1.1 1.22 0.86 l-0.26 0.48 c-0.44 0.16 -0.54 0.2 -0.92 0.2 c-0.88 0 -1.44 -0.66 -1.44 -1.44 l0 -4.6 c0 -1.38 -0.54 -2.3 -1.7 -2.3 c-1.32 0 -2.5 1.2 -2.82 1.64 l0 5.78 c0 0.46 0.32 0.56 1 0.56 l0 0.36 l-3.32 0 l0 -0.36 c0.64 0 0.94 -0.1 0.94 -0.56 l0 -6.44 c0 -0.66 -0.42 -0.88 -1.18 -0.78 l0 -0.7 l1.98 -0.34 c0.74 -0.12 0.6 0.6 0.5 1.48 l-0.08 0.7 c0.32 -0.62 1.56 -2.18 3.42 -2.18 c1.76 0 2.66 0.82 2.66 3.46 l0 4.18 z M141.14550000000003 22.56 c0 0.74 0.34 0.86 1.08 0.72 l-0.04 0.46 l-0.98 0.3 c-0.58 0.18 -1.24 -0.44 -1.42 -1.88 c-0.28 0.44 -0.98 1.96 -2.92 1.96 c-1.98 0 -3.8 -1.68 -3.8 -4.68 c0 -2.32 1.24 -4.54 3.72 -4.54 c1.46 0 2.36 0.7 3 1.36 l0 -3.48 c0 -0.66 -0.34 -0.94 -1.1 -0.92 l0 -0.6 l1.88 -0.38 c0.74 -0.14 0.58 0.6 0.58 1.48 l0 10.2 z M139.7855 21.12 l0 -3.88 c-0.86 -1.22 -1.76 -1.72 -2.7 -1.72 c-1.7 0 -2.66 1.62 -2.66 3.66 c0 2.66 1.34 4.12 2.8 4.12 c1.48 0 2.18 -1.18 2.56 -2.18 z M146.08900000000003 12.26 c-0.42 0 -0.82 -0.36 -0.82 -0.84 c0 -0.44 0.4 -0.8 0.82 -0.8 c0.44 0 0.84 0.36 0.84 0.8 c0 0.48 -0.4 0.84 -0.84 0.84 z M146.76900000000003 23.08 c0 0.46 0.34 0.56 0.86 0.56 l0 0.36 l-3.04 0 l0 -0.36 c0.54 0 0.88 -0.1 0.88 -0.56 l0 -6.6 c0 -0.46 -0.16 -0.62 -0.56 -0.62 l-0.4 0 l0 -0.7 l1.62 -0.34 c0.46 -0.1 0.64 0.2 0.64 0.64 l0 7.62 z M158.3925 22.46 c0 0.66 0.2 1.1 1.22 0.86 l-0.26 0.48 c-0.44 0.16 -0.54 0.2 -0.92 0.2 c-0.88 0 -1.44 -0.66 -1.44 -1.44 l0 -4.6 c0 -1.38 -0.54 -2.3 -1.7 -2.3 c-1.32 0 -2.5 1.2 -2.82 1.64 l0 5.78 c0 0.46 0.32 0.56 1 0.56 l0 0.36 l-3.32 0 l0 -0.36 c0.64 0 0.94 -0.1 0.94 -0.56 l0 -6.44 c0 -0.66 -0.42 -0.88 -1.18 -0.78 l0 -0.7 l1.98 -0.34 c0.74 -0.12 0.6 0.6 0.5 1.48 l-0.08 0.7 c0.32 -0.62 1.56 -2.18 3.42 -2.18 c1.76 0 2.66 0.82 2.66 3.46 l0 4.18 z M170.35600000000002 14.84 c0.64 0 0.94 0.38 0.94 0.7 c0 0.56 -0.3 0.8 -0.62 0.7 c-0.7 -0.18 -1.08 0.02 -1.1 1.52 c-0.02 1.56 -1.2 2.82 -3.64 2.82 c-0.52 0 -1 -0.08 -1.42 -0.22 c-1.94 -0.14 -2 1.56 0.22 1.9 l2.06 0.34 c2.74 0.4 3.82 0.88 3.82 2.64 c0 1.98 -1.72 3.16 -4.72 3.16 c-2.66 0 -4.2 -0.82 -4.2 -2.52 c0 -1.5 1.38 -2.2 2.42 -2.4 c-3.12 -0.58 -3.06 -3.6 -0.46 -3.56 c-0.74 -0.52 -1.2 -1.3 -1.2 -2.26 c0 -1.46 1.04 -2.82 3.7 -2.82 c1.46 0 2.56 0.72 2.84 1.3 c0.06 -0.9 0.62 -1.3 1.36 -1.3 z M166.01600000000002 19.98 c1.96 0 2.12 -1.32 2.12 -2.34 c0 -1.14 -0.16 -2.18 -2.12 -2.18 c-1.74 0 -2.1 1.04 -2.1 2.18 c0 1.02 0.36 2.34 2.1 2.34 z M164.95600000000002 23.56 c-1.22 0.14 -1.78 1.1 -1.78 2.14 c0 1.28 0.86 2.18 2.92 2.18 c2.24 0 3.16 -0.76 3.16 -2.36 c0 -1.14 -0.64 -1.4 -1.94 -1.62 z"/></g><g id="SvgjsG1400" featureKey="text3" fill="#000" transform="matrix(1.6323634454129383,0,0,1.6323634454129383,390.334990484371,99.50461397466702)"><path d="M8.34 9.48 q3.14 0 4.88 2.22 l-1.08 0.9 q-0.6 -0.9 -1.6 -1.41 t-2.2 -0.51 q-2.64 0 -4.3 1.74 t-1.7 4.5 q0 2.74 1.67 4.47 t4.33 1.77 q1.14 0 2.32 -0.57 t1.86 -1.63 l1.08 0.82 q-1.88 2.58 -5.26 2.58 q-3.28 -0.02 -5.27 -2.12 t-2.05 -5.32 q0 -3.26 2.05 -5.33 t5.27 -2.11 z M18.164 21.44 q0 0.76 0.61 1.24 t1.51 0.48 q1.62 0 2.41 -0.85 t0.79 -2.31 l0 -0.64 l-1.44 0 q-1.84 0 -2.86 0.56 t-1.02 1.52 z M20.884 14.52 q1.86 0 2.76 0.86 t0.92 2.4 l0 2.74 q0 2.24 0.18 3.48 l-1.12 0 q-0.12 -0.62 -0.12 -1.5 l-0.04 0 q-1 1.74 -3.22 1.74 q-1.5 0 -2.38 -0.74 t-0.9 -2 q0 -1.54 1.33 -2.32 t3.71 -0.78 l1.48 0 l0 -0.54 q0 -1.14 -0.7 -1.7 t-1.9 -0.56 q-1.6 0 -2.82 1.04 l-0.7 -0.82 q0.66 -0.64 1.63 -0.97 t1.89 -0.33 z M30.288000000000004 19.38 q0 1.58 1.12 2.66 t2.74 1.12 q1.62 0 2.63 -1.07 t1.03 -2.71 q0 -1.6 -1 -2.68 t-2.68 -1.1 q-1.62 0 -2.72 1.1 t-1.12 2.68 z M34.148 14.52 q2.12 0 3.48 1.37 t1.38 3.49 q0 2.12 -1.36 3.48 t-3.5 1.38 q-1.18 0 -2.19 -0.5 t-1.51 -1.36 l-0.04 0 l0 6.18 l-1.2 0 l0 -13.8 l1.2 0 l0 1.62 l0.04 0 q0.48 -0.84 1.5 -1.35 t2.2 -0.51 z M43.592 14.76 l1.2 0 l0 9.24 l-1.2 0 l0 -9.24 z M44.192 10.2 q0.4 0 0.65 0.26 t0.25 0.64 t-0.25 0.64 t-0.65 0.26 q-0.38 0 -0.64 -0.26 t-0.26 -0.64 t0.26 -0.64 t0.64 -0.26 z M50.576 12.1 l1.2 0 l0 2.66 l2.64 0 l0 1.08 l-2.64 0 l0 6.04 q0 0.58 0.34 0.93 t0.94 0.35 q0.66 0 1.36 -0.32 l0.1 1.08 q-0.9 0.32 -1.58 0.32 q-1.18 0 -1.77 -0.66 t-0.59 -1.7 l0 -6.04 l-2 0 l0 -1.08 l2 0 l0 -2.66 z M59.04 21.44 q0 0.76 0.61 1.24 t1.51 0.48 q1.62 0 2.41 -0.85 t0.79 -2.31 l0 -0.64 l-1.44 0 q-1.84 0 -2.86 0.56 t-1.02 1.52 z M61.76 14.52 q1.86 0 2.76 0.86 t0.92 2.4 l0 2.74 q0 2.24 0.18 3.48 l-1.12 0 q-0.12 -0.62 -0.12 -1.5 l-0.04 0 q-1 1.74 -3.22 1.74 q-1.5 0 -2.38 -0.74 t-0.9 -2 q0 -1.54 1.33 -2.32 t3.71 -0.78 l1.48 0 l0 -0.54 q0 -1.14 -0.7 -1.7 t-1.9 -0.56 q-1.6 0 -2.82 1.04 l-0.7 -0.82 q0.66 -0.64 1.63 -0.97 t1.89 -0.33 z M70.544 8.88 l1.2 0 l0 15.12 l-1.2 0 l0 -15.12 z  M88.312 16.08 q1.54 0 2.38 -0.69 t0.84 -1.83 t-0.82 -1.82 t-2.44 -0.7 l-2.86 0 l0 5.04 l2.9 0 z M87.912 9.84 q4.9 0 4.94 3.72 q0 3.14 -3.62 3.64 l4.12 6.8 l-1.5 0 l-3.98 -6.72 l-2.46 0 l0 6.72 l-1.32 0 l0 -14.16 l3.82 0 z M104.55600000000001 18.6 q0 -1.26 -0.94 -2.13 t-2.28 -0.87 q-1.3 0 -2.24 0.87 t-1.1 2.13 l6.56 0 z M101.41600000000001 14.52 q1.92 0 3.12 1.24 t1.22 3.2 l0 0.72 l-7.76 0 q0.08 1.56 1.03 2.51 t2.47 0.97 q0.94 0 1.79 -0.45 t1.31 -1.19 l0.88 0.74 q-1.3 1.98 -4 1.98 q-2.12 -0.02 -3.39 -1.38 t-1.29 -3.5 q0 -2.08 1.31 -3.45 t3.31 -1.39 z M110.34 14.76 l1.2 0 l0 9.24 l-1.2 0 l0 -9.24 z M110.94000000000001 10.2 q0.4 0 0.65 0.26 t0.25 0.64 t-0.25 0.64 t-0.65 0.26 q-0.38 0 -0.64 -0.26 t-0.26 -0.64 t0.26 -0.64 t0.64 -0.26 z M121.04400000000001 14.52 q1.02 0 1.75 0.52 t1.03 1.48 q0.4 -0.96 1.26 -1.48 t1.9 -0.52 q3.5 0 3.5 3.92 l0 5.56 l-1.2 0 l0 -5.5 q0 -2.88 -2.32 -2.9 q-1.4 0 -2.1 0.92 t-0.7 2.38 l0 5.1 l-1.2 0 l0 -5.62 q0 -1.26 -0.48 -2.01 t-1.46 -0.77 q-1.44 0 -2.3 1.01 t-0.88 2.81 l0 4.58 l-1.2 0 l0 -6.74 q-0.02 -0.68 -0.1 -2.5 l1.2 0 q0.04 1.48 0.08 1.62 l0.06 0 q0.4 -0.86 1.28 -1.36 t1.88 -0.5 z M136.168 21.44 q0 0.76 0.61 1.24 t1.51 0.48 q1.62 0 2.41 -0.85 t0.79 -2.31 l0 -0.64 l-1.44 0 q-1.84 0 -2.86 0.56 t-1.02 1.52 z M138.888 14.52 q1.86 0 2.76 0.86 t0.92 2.4 l0 2.74 q0 2.24 0.18 3.48 l-1.12 0 q-0.12 -0.62 -0.12 -1.5 l-0.04 0 q-1 1.74 -3.22 1.74 q-1.5 0 -2.38 -0.74 t-0.9 -2 q0 -1.54 1.33 -2.32 t3.71 -0.78 l1.48 0 l0 -0.54 q0 -1.14 -0.7 -1.7 t-1.9 -0.56 q-1.6 0 -2.82 1.04 l-0.7 -0.82 q0.66 -0.64 1.63 -0.97 t1.89 -0.33 z M148.27200000000002 19.259999999999998 q0 1.52 1.07 2.57 t2.59 1.09 q1.5 0 2.56 -1.06 t1.1 -2.6 q0 -1.52 -1.08 -2.58 t-2.6 -1.08 q-1.52 0 -2.58 1.09 t-1.06 2.57 z M152.012 14.52 q2.36 0.02 3.5 1.8 l0.04 0 l0 -1.56 l1.2 0 l0 8.6 q0 2.7 -1.3 4.07 t-3.64 1.37 q-1.4 0 -2.62 -0.51 t-1.94 -1.43 l0.94 -0.88 q1.24 1.74 3.64 1.74 q3.72 0 3.72 -4.14 l0 -1.38 l-0.04 0 q-1.12 1.76 -3.5 1.8 q-2 0 -3.44 -1.37 t-1.5 -3.37 q0 -1.96 1.47 -3.34 t3.47 -1.4 z M161.59600000000003 14.76 l1.2 0 l0 9.24 l-1.2 0 l0 -9.24 z M162.19600000000003 10.2 q0.4 0 0.65 0.26 t0.25 0.64 t-0.25 0.64 t-0.65 0.26 q-0.38 0 -0.64 -0.26 t-0.26 -0.64 t0.26 -0.64 t0.64 -0.26 z M172.3 14.52 q1.8 0 2.65 0.97 t0.87 3.05 l0 5.46 l-1.2 0 l0 -5.4 q0 -1.54 -0.57 -2.27 t-1.75 -0.73 q-1.46 0 -2.32 1.01 t-0.88 2.81 l0 4.58 l-1.2 0 l0 -6.74 q-0.02 -0.58 -0.1 -2.5 l1.2 0 q0.04 1.58 0.08 1.62 l0.06 0 q0.4 -0.84 1.27 -1.35 t1.89 -0.51 z M187.96400000000003 18.6 q0 -1.26 -0.94 -2.13 t-2.28 -0.87 q-1.3 0 -2.24 0.87 t-1.1 2.13 l6.56 0 z M184.824 14.52 q1.92 0 3.12 1.24 t1.22 3.2 l0 0.72 l-7.76 0 q0.08 1.56 1.03 2.51 t2.47 0.97 q0.94 0 1.79 -0.45 t1.31 -1.19 l0.88 0.74 q-1.3 1.98 -4 1.98 q-2.12 -0.02 -3.39 -1.38 t-1.29 -3.5 q0 -2.08 1.31 -3.45 t3.31 -1.39 z M194.22800000000004 19.38 q0 1.66 1.04 2.72 t2.62 1.06 q1.56 0 2.69 -1.07 t1.17 -2.71 q0 -1.56 -1.11 -2.66 t-2.77 -1.12 q-1.56 0 -2.59 1.06 t-1.05 2.72 z M201.62800000000004 8.88 l1.2 0 l0 15.12 l-1.2 0 l0 -1.62 l-0.04 0 q-0.5 0.88 -1.53 1.37 t-2.17 0.49 q-2.06 0 -3.44 -1.35 t-1.42 -3.51 q0 -2.06 1.35 -3.44 t3.51 -1.42 q1.18 0 2.18 0.49 t1.52 1.37 l0.04 0 l0 -7.5 z"/></g>
			</g>
		</svg>
	